<?xml version="1.0" encoding="UTF-8" standalone="no"?>
<!DOCTYPE svg PUBLIC "-//W3C//DTD SVG 1.1//EN"
 "http://www.w3.org/Graphics/SVG/1.1/DTD/svg11.dtd">
<!-- Generated by graphviz version 2.38.0 (20140413.2041)
 -->
<!-- Title: G Pages: 1 -->
<svg width="825pt" height="118pt"
 viewBox="0.00 0.00 825.00 118.00" xmlns="http://www.w3.org/2000/svg" xmlns:xlink="http://www.w3.org/1999/xlink">
<g id="graph0" class="graph" transform="scale(1 1) rotate(0) translate(4 114)">
<title>G</title>
<polygon fill="white" stroke="none" points="-4,4 -4,-114 821,-114 821,4 -4,4"/>
<!-- On Graph Start: Out -->
<g id="node1" class="node"><title>On Graph Start: Out</title>
<path fill="none" stroke="black" d="M29,-73.5C29,-73.5 136,-73.5 136,-73.5 142,-73.5 148,-79.5 148,-85.5 148,-85.5 148,-97.5 148,-97.5 148,-103.5 142,-109.5 136,-109.5 136,-109.5 29,-109.5 29,-109.5 23,-109.5 17,-103.5 17,-97.5 17,-97.5 17,-85.5 17,-85.5 17,-79.5 23,-73.5 29,-73.5"/>
<text text-anchor="middle" x="82.5" y="-87.8" font-family="Times New Roman,serif" font-size="14.00">On Graph Start: Out</text>
</g>
<!-- TickBus Handler: Connect -->
<g id="node2" class="node"><title>TickBus Handler: Connect</title>
<path fill="none" stroke="black" d="M12,-0.5C12,-0.5 153,-0.5 153,-0.5 159,-0.5 165,-6.5 165,-12.5 165,-12.5 165,-24.5 165,-24.5 165,-30.5 159,-36.5 153,-36.5 153,-36.5 12,-36.5 12,-36.5 6,-36.5 0,-30.5 0,-24.5 0,-24.5 0,-12.5 0,-12.5 0,-6.5 6,-0.5 12,-0.5"/>
<text text-anchor="middle" x="82.5" y="-14.8" font-family="Times New Roman,serif" font-size="14.00">TickBus Handler: Connect</text>
</g>
<!-- On Graph Start: Out&#45;&gt;TickBus Handler: Connect -->
<g id="edge1" class="edge"><title>On Graph Start: Out&#45;&gt;TickBus Handler: Connect</title>
<path fill="none" stroke="black" d="M82.5,-73.3129C82.5,-65.2895 82.5,-55.5475 82.5,-46.5691"/>
<polygon fill="black" stroke="black" points="86.0001,-46.5288 82.5,-36.5288 79.0001,-46.5289 86.0001,-46.5288"/>
</g>
<!-- TickBus Handler: ExecutionSlot:OnTick -->
<g id="node3" class="node"><title>TickBus Handler: ExecutionSlot:OnTick</title>
<path fill="none" stroke="black" d="M178.5,-73.5C178.5,-73.5 396.5,-73.5 396.5,-73.5 402.5,-73.5 408.5,-79.5 408.5,-85.5 408.5,-85.5 408.5,-97.5 408.5,-97.5 408.5,-103.5 402.5,-109.5 396.5,-109.5 396.5,-109.5 178.5,-109.5 178.5,-109.5 172.5,-109.5 166.5,-103.5 166.5,-97.5 166.5,-97.5 166.5,-85.5 166.5,-85.5 166.5,-79.5 172.5,-73.5 178.5,-73.5"/>
<text text-anchor="middle" x="287.5" y="-87.8" font-family="Times New Roman,serif" font-size="14.00">TickBus Handler: ExecutionSlot:OnTick</text>
</g>
<!-- Print: In -->
<g id="node4" class="node"><title>Print: In</title>
<path fill="none" stroke="black" d="M269,-0.5C269,-0.5 306,-0.5 306,-0.5 312,-0.5 318,-6.5 318,-12.5 318,-12.5 318,-24.5 318,-24.5 318,-30.5 312,-36.5 306,-36.5 306,-36.5 269,-36.5 269,-36.5 263,-36.5 257,-30.5 257,-24.5 257,-24.5 257,-12.5 257,-12.5 257,-6.5 263,-0.5 269,-0.5"/>
<text text-anchor="middle" x="287.5" y="-14.8" font-family="Times New Roman,serif" font-size="14.00">Print: In</text>
</g>
<!-- TickBus Handler: ExecutionSlot:OnTick&#45;&gt;Print: In -->
<g id="edge2" class="edge"><title>TickBus Handler: ExecutionSlot:OnTick&#45;&gt;Print: In</title>
<path fill="none" stroke="black" d="M287.5,-73.3129C287.5,-65.2895 287.5,-55.5475 287.5,-46.5691"/>
<polygon fill="black" stroke="black" points="291,-46.5288 287.5,-36.5288 284,-46.5289 291,-46.5288"/>
</g>
<!-- TickBus Handler: Number -->
<g id="node5" class="node"><title>TickBus Handler: Number</title>
<path fill="none" stroke="black" d="M439,-73.5C439,-73.5 578,-73.5 578,-73.5 584,-73.5 590,-79.5 590,-85.5 590,-85.5 590,-97.5 590,-97.5 590,-103.5 584,-109.5 578,-109.5 578,-109.5 439,-109.5 439,-109.5 433,-109.5 427,-103.5 427,-97.5 427,-97.5 427,-85.5 427,-85.5 427,-79.5 433,-73.5 439,-73.5"/>
<text text-anchor="middle" x="508.5" y="-87.8" font-family="Times New Roman,serif" font-size="14.00">TickBus Handler: Number</text>
</g>
<!-- Print: Value -->
<g id="node6" class="node"><title>Print: Value</title>
<path fill="none" stroke="black" d="M480,-0.5C480,-0.5 537,-0.5 537,-0.5 543,-0.5 549,-6.5 549,-12.5 549,-12.5 549,-24.5 549,-24.5 549,-30.5 543,-36.5 537,-36.5 537,-36.5 480,-36.5 480,-36.5 474,-36.5 468,-30.5 468,-24.5 468,-24.5 468,-12.5 468,-12.5 468,-6.5 474,-0.5 480,-0.5"/>
<text text-anchor="middle" x="508.5" y="-14.8" font-family="Times New Roman,serif" font-size="14.00">Print: Value</text>
</g>
<!-- TickBus Handler: Number&#45;&gt;Print: Value -->
<g id="edge3" class="edge"><title>TickBus Handler: Number&#45;&gt;Print: Value</title>
<path fill="none" stroke="black" d="M508.5,-73.3129C508.5,-65.2895 508.5,-55.5475 508.5,-46.5691"/>
<polygon fill="black" stroke="black" points="512,-46.5288 508.5,-36.5288 505,-46.5289 512,-46.5288"/>
</g>
<!-- TickBus Handler: ScriptTimePoint -->
<g id="node7" class="node"><title>TickBus Handler: ScriptTimePoint</title>
<path fill="none" stroke="black" d="M620,-73.5C620,-73.5 805,-73.5 805,-73.5 811,-73.5 817,-79.5 817,-85.5 817,-85.5 817,-97.5 817,-97.5 817,-103.5 811,-109.5 805,-109.5 805,-109.5 620,-109.5 620,-109.5 614,-109.5 608,-103.5 608,-97.5 608,-97.5 608,-85.5 608,-85.5 608,-79.5 614,-73.5 620,-73.5"/>
<text text-anchor="middle" x="712.5" y="-87.8" font-family="Times New Roman,serif" font-size="14.00">TickBus Handler: ScriptTimePoint</text>
</g>
<!-- Print: Value_1 -->
<g id="node8" class="node"><title>Print: Value_1</title>
<path fill="none" stroke="black" d="M677,-0.5C677,-0.5 748,-0.5 748,-0.5 754,-0.5 760,-6.5 760,-12.5 760,-12.5 760,-24.5 760,-24.5 760,-30.5 754,-36.5 748,-36.5 748,-36.5 677,-36.5 677,-36.5 671,-36.5 665,-30.5 665,-24.5 665,-24.5 665,-12.5 665,-12.5 665,-6.5 671,-0.5 677,-0.5"/>
<text text-anchor="middle" x="712.5" y="-14.8" font-family="Times New Roman,serif" font-size="14.00">Print: Value_1</text>
</g>
<!-- TickBus Handler: ScriptTimePoint&#45;&gt;Print: Value_1 -->
<g id="edge4" class="edge"><title>TickBus Handler: ScriptTimePoint&#45;&gt;Print: Value_1</title>
<path fill="none" stroke="black" d="M712.5,-73.3129C712.5,-65.2895 712.5,-55.5475 712.5,-46.5691"/>
<polygon fill="black" stroke="black" points="716,-46.5288 712.5,-36.5288 709,-46.5289 716,-46.5288"/>
</g>
</g>
</svg>
